<svg version="1.0" xmlns="http://www.w3.org/2000/svg"
     width="100%" height="auto" viewBox="0 0 270 66"
     preserveAspectRatio="xMidYMid meet">
    <g transform="translate(-10.000000,97.000000) scale(0.100000,-0.100000)"
       fill="#000000" stroke="none">
        <path d="M1423 919 c-124 -66 -157 -89 -145 -101 8 -8 16 -7 27 2 13 11 15 8
15 -19 l0 -31 -130 0 c-80 0 -130 -4 -130 -10 0 -10 42 -12 293 -15 116 -1
150 5 133 22 -3 3 -35 5 -71 4 l-65 -2 0 38 c0 39 0 39 86 82 57 29 98 43 123
43 42 -1 116 -28 214 -79 37 -20 70 -33 74 -30 3 4 -6 12 -21 18 -17 8 -26 20
-26 35 0 27 -18 41 -26 20 -5 -12 -21 -7 -87 25 -112 54 -158 54 -264 -2z"/>
        <path d="M1095 583 c60 -31 65 -41 65 -118 0 -42 -5 -76 -12 -83 -9 -9 -5 -12
18 -11 16 0 23 3 17 6 -9 3 -13 27 -13 71 l0 67 40 -66 c46 -76 101 -129 133
-128 19 1 17 3 -10 15 -43 18 -51 34 -17 34 22 0 25 3 16 12 -17 17 -16 155 1
161 6 3 3 6 -8 6 -15 1 -25 -11 -38 -43 -35 -84 -38 -85 -84 -12 -40 63 -91
106 -123 106 -8 -1 -1 -8 15 -17z m200 -200 c-4 -12 -8 -13 -20 -3 -19 16 -19
25 3 77 l17 43 3 -51 c2 -29 1 -58 -3 -66z"/>
        <path d="M148 569 c-35 -20 -22 -56 37 -99 60 -44 70 -73 36 -104 -26 -24 -78
-13 -93 20 -9 18 -7 29 6 49 20 31 3 34 -18 3 -22 -31 -20 -45 9 -73 31 -32
86 -34 115 -5 39 39 22 86 -45 126 -47 27 -61 66 -29 78 25 9 33 7 54 -14 19
-19 20 -19 20 -1 0 30 -55 42 -92 20z"/>
        <path d="M1592 544 c-12 -8 -22 -26 -22 -38 0 -19 10 -28 50 -44 41 -17 50
-25 50 -45 0 -44 -58 -51 -89 -11 l-21 27 0 -25 c0 -20 7 -27 36 -36 43 -13
78 -2 94 28 16 31 -8 63 -59 78 -47 14 -58 27 -41 47 18 21 58 18 72 -5 17
-26 30 -25 26 2 -2 11 -10 22 -19 24 -9 1 -25 5 -36 8 -10 3 -29 -1 -41 -10z"/>
        <path d="M280 530 c0 -11 5 -20 10 -20 6 0 10 7 10 15 0 9 10 15 26 15 l25 0
-3 -85 -3 -85 25 1 c14 0 19 3 13 6 -9 3 -13 30 -13 84 l0 79 29 0 c23 0 31
-5 34 -22 4 -20 4 -19 6 5 l1 27 -80 0 c-73 0 -80 -2 -80 -20z"/>
        <path d="M478 483 c5 -101 18 -111 139 -112 87 0 97 2 119 24 34 34 33 97 -1
130 -19 20 -34 25 -77 25 l-53 0 0 -77 c0 -75 -1 -78 -27 -87 -20 -7 -33 -5
-52 8 -23 15 -26 23 -26 80 0 42 4 66 13 69 6 3 1 6 -13 6 -25 1 -25 0 -22
-66z m236 36 c20 -16 26 -29 26 -59 0 -50 -35 -80 -93 -80 -32 0 -38 3 -29 12
7 7 12 40 12 80 l0 68 29 0 c15 0 40 -9 55 -21z"/>
        <path d="M788 538 c7 -7 12 -40 12 -78 0 -38 -5 -71 -12 -78 -9 -9 -7 -12 13
-12 24 0 24 1 24 90 0 89 0 90 -24 90 -20 0 -22 -3 -13 -12z"/>
        <path d="M879 524 c-54 -58 -15 -154 63 -154 54 0 88 35 88 90 0 55 -34 90
-88 90 -28 0 -45 -7 -63 -26z m114 -11 c37 -34 10 -133 -38 -133 -27 0 -63 22
-74 47 -17 37 -13 62 15 89 27 28 63 27 97 -3z"/>
        <path d="M1390 530 c-60 -60 -22 -160 60 -160 45 0 78 32 86 82 5 27 1 40 -21
66 -22 26 -34 32 -66 32 -25 0 -46 -7 -59 -20z m113 -22 c26 -31 22 -82 -9
-107 -35 -27 -59 -26 -89 4 -40 39 -31 111 15 128 25 9 64 -2 83 -25z"/>
        <path d="M1746 525 c-42 -39 -31 -120 21 -144 46 -21 83 -14 119 25 28 29 40
35 66 32 27 -2 35 -9 43 -35 7 -26 15 -33 34 -33 24 0 24 0 5 18 -10 10 -32
51 -49 90 -16 40 -33 72 -36 72 -4 0 -18 -26 -33 -57 -14 -32 -32 -66 -39 -75
-22 -28 -59 -38 -93 -23 -34 14 -44 32 -44 74 0 53 70 87 116 56 30 -20 48
-10 20 11 -32 23 -99 18 -130 -11z m224 -62 c0 -7 -11 -13 -25 -13 -29 0 -28
-2 -14 40 l12 33 13 -24 c7 -13 13 -30 14 -36z"/>
        <path d="M2078 541 c10 -6 13 -30 10 -90 -3 -81 -3 -81 22 -80 14 0 19 3 13 6
-7 2 -13 18 -13 34 0 27 3 30 27 27 18 -2 35 -14 48 -35 11 -18 26 -32 33 -33
15 0 -14 49 -36 63 -11 7 -9 12 7 24 26 18 27 47 1 73 -15 15 -33 20 -72 20
-33 0 -48 -4 -40 -9z m104 -24 c13 -20 9 -35 -14 -51 -42 -30 -58 -21 -58 30
l0 47 32 -7 c18 -3 36 -12 40 -19z"/>
        <path d="M2260 540 c0 -5 3 -10 8 -10 10 0 9 -132 -1 -147 -6 -10 5 -13 48
-13 49 0 60 4 86 29 20 20 29 39 29 61 0 22 -9 41 -29 61 -26 25 -37 29 -85
29 -31 0 -56 -4 -56 -10z m110 -15 c57 -30 46 -135 -14 -135 -14 0 -31 -3 -40
-6 -14 -5 -16 5 -16 75 0 75 2 81 20 81 12 0 34 -7 50 -15z"/>
        <path d="M2468 538 c7 -7 12 -40 12 -78 0 -38 -5 -71 -12 -78 -9 -9 -7 -12 13
-12 24 0 24 1 24 90 0 89 0 90 -24 90 -20 0 -22 -3 -13 -12z"/>
        <path d="M2558 469 c3 -60 0 -84 -10 -90 -9 -6 -4 -9 16 -9 23 0 26 3 17 14
-7 9 -11 39 -9 76 l3 62 55 -76 c30 -41 58 -76 62 -76 4 0 8 41 10 90 3 82 1
90 -16 90 -15 0 -16 -3 -7 -14 7 -8 11 -38 9 -72 l-3 -58 -53 72 c-30 40 -59
72 -65 72 -9 0 -11 -25 -9 -81z"/>
        <path d="M2748 543 c8 -3 12 -30 12 -83 0 -53 -4 -80 -12 -83 -7 -3 3 -5 22
-5 19 0 29 2 23 5 -9 3 -13 30 -13 83 0 53 4 80 13 83 6 3 -4 5 -23 5 -19 0
-29 -2 -22 -5z"/>
    </g>
</svg>
