<?xml version="1.0" standalone="no"?>
<!DOCTYPE svg PUBLIC "-//W3C//DTD SVG 20010904//EN"
        "http://www.w3.org/TR/2001/REC-SVG-20010904/DTD/svg10.dtd">
<svg version="1.0" xmlns="http://www.w3.org/2000/svg"
     width="3000.000000pt" height="700.000000pt" viewBox="0 0 2700.000000 1"
     preserveAspectRatio="xMidYMid meet">

    <g transform="translate(-700.000000,2000.000000) scale(0.100000,-0.100000)"
       fill="#000000" stroke="none">
        <path d="M21075 22705 c-288 -41 -478 -114 -963 -372 -428 -227 -612 -330
-867 -485 -328 -199 -436 -281 -456 -348 -24 -79 8 -110 111 -110 48 0 71 6
127 36 37 20 80 45 95 55 14 11 31 19 37 19 7 0 11 -47 11 -145 0 -108 4 -155
15 -182 9 -21 18 -63 22 -95 l6 -58 -444 0 c-418 0 -574 -6 -999 -39 -69 -6
-190 -13 -270 -16 -214 -9 -527 -33 -588 -44 -62 -12 -98 -29 -86 -41 5 -5
176 -23 379 -39 204 -17 420 -35 480 -41 235 -22 661 -30 1733 -30 790 0 1126
3 1158 11 28 7 54 23 69 41 53 62 43 117 -29 166 l-48 32 -579 0 -579 0 0 38
c0 22 8 61 17 88 13 38 18 101 22 284 l6 235 90 49 c50 27 151 83 225 125 360
203 798 424 986 498 247 98 447 141 594 128 189 -16 480 -94 748 -200 308
-121 491 -206 1181 -553 l524 -263 66 3 c87 4 87 22 0 68 -36 19 -104 59 -150
89 -98 64 -169 109 -221 140 l-38 23 0 165 c0 161 -1 168 -26 211 -25 42 -70
72 -110 72 -21 0 -101 -82 -115 -116 -5 -14 -9 -52 -9 -85 l0 -61 -35 22
c-103 64 -476 264 -660 355 -300 147 -647 282 -904 352 -81 22 -121 26 -261
29 -105 2 -201 -2 -265 -11z"/>
        <path d="M16925 19412 c6 -5 55 -21 110 -36 206 -55 381 -163 578 -354 l107
-105 0 -704 0 -703 -80 0 -80 0 0 -35 0 -35 195 0 195 0 0 35 0 35 -80 0 -80
0 0 622 c0 348 4 618 9 612 4 -5 54 -83 110 -174 56 -91 135 -218 176 -282 41
-65 109 -178 151 -250 249 -431 568 -802 812 -947 105 -63 202 -93 307 -98 94
-4 140 8 140 37 0 11 -19 17 -77 22 -42 4 -96 12 -120 18 -53 14 -180 77 -251
124 -61 41 -240 221 -311 314 -78 102 -156 233 -156 261 0 15 95 227 211 471
116 245 217 459 224 475 11 25 13 -63 14 -587 l1 -618 -75 0 -75 0 0 -35 0
-35 220 0 220 0 0 35 0 35 -65 0 -65 0 0 705 0 705 70 0 70 0 0 40 0 40 -133
0 c-120 0 -133 -2 -144 -19 -7 -11 -128 -262 -269 -558 -141 -296 -258 -540
-260 -542 -6 -7 -25 21 -160 234 -217 342 -405 625 -496 746 -160 212 -368
388 -587 497 l-114 57 -126 3 c-79 3 -122 0 -116 -6z"/>
        <path d="M8880 19260 c-113 -16 -188 -49 -250 -110 -80 -78 -114 -153 -118
-256 -10 -231 97 -355 512 -591 164 -93 252 -160 359 -273 121 -126 132 -153
132 -315 0 -126 -1 -132 -33 -199 -24 -52 -53 -90 -115 -151 -110 -109 -154
-126 -327 -133 -203 -7 -351 38 -450 137 -135 135 -193 304 -156 451 26 100
49 140 147 244 50 54 88 103 86 109 -8 26 -47 16 -120 -33 -97 -65 -174 -150
-223 -246 -35 -70 -39 -84 -42 -172 -3 -82 0 -109 21 -174 58 -181 174 -288
397 -366 168 -59 351 -67 495 -22 170 53 345 187 412 316 88 167 56 461 -65
608 -88 106 -240 223 -413 317 -227 123 -297 170 -363 239 -128 136 -157 253
-94 372 53 100 150 155 291 165 208 14 364 -69 446 -237 21 -45 43 -76 54 -78
16 -3 17 11 17 192 0 153 -3 196 -13 196 -7 0 -18 -13 -24 -30 -17 -46 -49
-48 -156 -7 -51 19 -114 37 -142 41 -100 12 -201 14 -265 6z"/>
        <path d="M21740 19024 c-72 -19 -170 -68 -219 -111 -24 -20 -54 -62 -73 -101
-31 -62 -33 -74 -33 -167 0 -125 19 -179 80 -233 59 -52 183 -112 355 -171
361 -123 461 -183 491 -293 19 -72 6 -197 -29 -271 -64 -139 -225 -214 -434
-205 -146 7 -198 36 -360 201 l-128 129 0 64 0 64 -30 0 -30 0 0 -230 0 -230
30 0 c30 0 30 1 30 55 0 67 8 69 86 19 93 -59 234 -123 324 -145 105 -26 249
-22 351 10 139 44 281 165 335 287 136 306 -61 563 -498 649 -170 33 -308 92
-393 167 -59 52 -75 85 -75 150 0 122 54 197 177 248 188 79 420 35 549 -102
46 -49 62 -79 115 -215 6 -16 17 -23 34 -23 l25 0 0 210 0 210 -25 0 c-21 0
-25 -5 -25 -30 0 -40 -6 -39 -175 14 -77 24 -161 49 -187 55 -64 15 -201 13
-268 -5z"/>
        <path d="M23440 19020 c-296 -63 -496 -213 -625 -470 -87 -173 -87 -431 -1
-645 46 -112 97 -188 186 -276 111 -109 277 -189 454 -220 77 -13 268 -8 288
8 7 6 31 14 53 17 58 11 162 57 231 102 134 89 278 254 382 438 l43 76 325 -2
325 -3 115 -258 c63 -141 114 -262 114 -267 0 -6 -20 -10 -45 -10 -43 0 -45
-1 -45 -30 l0 -30 205 0 205 0 0 29 c0 25 -4 29 -37 35 -21 3 -54 6 -74 6 -20
0 -41 6 -46 13 -5 6 -153 337 -328 735 l-319 722 -46 -1 -45 0 -87 -182 c-48
-100 -103 -222 -122 -272 -92 -245 -248 -564 -326 -667 -65 -85 -194 -207
-269 -253 -199 -120 -444 -119 -686 3 -166 83 -238 154 -306 298 -197 417 -9
858 416 974 113 31 328 39 411 16 123 -36 218 -91 311 -181 115 -113 123 -112
123 10 l0 94 -42 29 c-149 102 -404 183 -571 181 -45 -1 -120 -9 -167 -19z
m1491 -592 c65 -146 119 -269 119 -272 0 -3 -124 -6 -275 -6 -151 0 -275 2
-275 5 0 5 258 604 267 617 3 6 14 -10 25 -34 11 -23 73 -163 139 -310z"/>
        <path d="M15620 19010 c-147 -19 -260 -78 -382 -200 -72 -73 -94 -102 -132
-182 -72 -151 -98 -251 -104 -399 -5 -152 15 -247 78 -375 156 -319 444 -484
799 -461 261 17 519 222 622 497 33 86 69 277 69 363 0 80 -34 247 -65 322
-52 123 -201 288 -310 342 -33 17 -107 45 -165 63 -89 27 -123 33 -225 35 -66
2 -149 0 -185 -5z m289 -110 c108 -26 192 -68 276 -136 74 -62 113 -111 160
-204 63 -124 77 -188 82 -370 6 -198 -2 -249 -62 -368 -77 -152 -203 -256
-362 -297 -91 -24 -303 -20 -384 6 -111 36 -179 78 -265 164 -99 99 -164 205
-194 318 -20 75 -22 98 -17 252 8 231 29 304 130 442 55 74 129 131 216 168
113 47 284 57 420 25z"/>
        <path d="M20160 19010 c-147 -19 -260 -78 -382 -200 -72 -73 -94 -102 -132
-182 -72 -151 -98 -251 -104 -399 -5 -152 15 -247 78 -375 156 -319 444 -484
799 -461 261 17 519 222 622 497 33 86 69 277 69 363 0 80 -34 247 -65 322
-52 123 -201 288 -310 342 -33 17 -107 45 -165 63 -89 27 -123 33 -225 35 -66
2 -149 0 -185 -5z m289 -110 c108 -26 192 -68 276 -136 74 -62 113 -111 160
-204 63 -124 77 -188 82 -370 6 -198 -2 -249 -62 -368 -77 -152 -203 -256
-362 -297 -91 -24 -303 -20 -384 6 -111 36 -179 78 -265 164 -99 99 -164 205
-194 318 -20 75 -22 98 -17 252 8 231 29 304 130 442 55 74 129 131 216 168
113 47 284 57 420 25z"/>
        <path d="M9910 18820 l0 -180 40 0 40 0 0 123 c0 107 2 126 18 140 16 15 49
17 260 17 l242 0 0 -710 0 -710 -75 0 c-73 0 -75 -1 -75 -25 l0 -25 220 0 220
0 0 25 c0 24 -2 25 -75 25 l-75 0 0 710 0 710 251 0 c309 0 288 12 289 -162
l0 -118 40 0 40 0 0 180 0 180 -680 0 -680 0 0 -180z"/>
        <path d="M11540 18965 l0 -35 60 0 60 0 0 -541 0 -541 37 -72 c44 -83 168
-218 255 -277 87 -60 220 -100 350 -106 138 -7 210 7 323 62 180 89 316 226
343 347 8 34 12 216 12 579 l0 530 293 -3 292 -3 85 -42 c71 -34 100 -56 172
-131 69 -72 95 -107 134 -187 l49 -98 0 -232 0 -232 -44 -89 c-37 -76 -59
-104 -145 -189 -66 -66 -122 -112 -163 -133 -114 -60 -127 -62 -485 -62 l-328
0 0 -36 0 -35 408 3 407 3 80 45 c101 56 281 232 338 330 66 114 72 147 72
400 0 185 -3 235 -17 280 -67 213 -322 437 -558 490 -26 5 -220 10 -457 10
l-413 0 0 -35 0 -35 53 0 c46 0 57 -4 81 -29 l27 -28 -3 -519 -3 -519 -24 -48
c-31 -64 -157 -196 -218 -229 -91 -50 -188 -73 -303 -73 -104 0 -106 1 -194
44 -71 34 -106 59 -166 120 -42 42 -87 98 -100 126 l-25 50 -3 553 -2 552 60
0 60 0 0 35 0 35 -200 0 -200 0 0 -35z"/>
        <path d="M25930 18960 l0 -40 75 0 75 0 0 -705 0 -705 -50 0 -50 0 0 -35 0
-35 195 0 195 0 0 35 0 35 -60 0 -60 0 0 256 0 255 193 -3 c180 -3 195 -5 242
-27 29 -15 84 -59 130 -106 69 -69 92 -102 164 -235 126 -232 102 -210 237
-210 l114 0 0 35 0 35 -52 0 -53 0 -46 73 c-25 39 -60 102 -77 139 -74 162
-150 249 -276 318 l-65 36 78 43 c158 87 229 162 270 284 68 201 -53 414 -304
533 -120 57 -177 64 -546 64 l-329 0 0 -40z m772 -68 c94 -32 157 -77 196
-142 42 -70 53 -107 59 -201 10 -142 -45 -253 -162 -329 -101 -66 -167 -80
-372 -80 l-173 0 0 391 0 391 193 -4 c165 -4 201 -7 259 -26z"/>
        <path d="M27600 18950 l0 -50 70 0 70 0 0 -690 0 -690 -65 0 -65 0 0 -41 0
-40 463 3 462 3 66 26 c98 38 156 75 231 147 103 99 200 249 234 361 20 68 19
369 -2 464 -46 204 -190 370 -424 487 -143 72 -126 70 -607 70 l-433 0 0 -50z
m845 -54 c152 -40 332 -178 404 -309 55 -101 71 -186 71 -396 0 -204 -10 -262
-63 -370 -41 -82 -140 -175 -245 -229 -132 -69 -154 -72 -444 -72 l-258 0 0
695 0 695 243 0 c170 0 257 -4 292 -14z"/>
        <path d="M30180 18960 l0 -40 60 0 60 0 0 -705 0 -705 -65 0 -65 0 0 -35 0
-35 190 0 190 0 0 35 0 35 -80 0 -80 0 0 632 c0 506 3 630 13 620 6 -7 244
-315 527 -685 479 -625 517 -672 548 -675 l32 -3 0 744 c0 848 -8 777 88 777
l52 0 0 35 0 35 -180 0 -180 0 0 -35 0 -35 53 0 c94 0 88 50 85 -639 l-3 -602
-295 397 c-162 218 -383 514 -490 658 l-196 261 -132 3 -132 3 0 -41z"/>
        <path d="M14330 18955 l0 -35 75 0 75 0 0 -705 0 -705 -75 0 -75 0 0 -35 0
-35 235 0 235 0 0 35 0 35 -80 0 -80 0 0 705 0 705 75 0 75 0 0 35 0 35 -230
0 -230 0 0 -35z"/>
        <path d="M29390 18955 l0 -35 75 0 75 0 0 -705 0 -705 -75 0 -75 0 0 -35 0
-35 235 0 235 0 0 35 0 35 -80 0 -80 0 0 705 0 705 75 0 75 0 0 35 0 35 -230
0 -230 0 0 -35z"/>
        <path d="M31950 18945 l0 -35 75 0 75 0 0 -705 0 -705 -75 0 -75 0 0 -35 0
-35 235 0 235 0 0 35 0 35 -80 0 -80 0 0 705 0 705 75 0 75 0 0 35 0 35 -230
0 -230 0 0 -35z"/>
    </g>
</svg>
