<svg version="1.0" xmlns="http://www.w3.org/2000/svg"
     width="100%" height="auto" viewBox="0 0 81 24"
     preserveAspectRatio="xMidYMid meet">
    <g transform="translate(-105,97) scale(0.1,-0.1)"
       fill="#000000" stroke="none">
        <path d="M1423 919 c-124 -66 -157 -89 -145 -101 8 -8 16 -7 27 2 13 11 15 8
15 -19 l0 -31 -130 0 c-80 0 -130 -4 -130 -10 0 -10 42 -12 293 -15 116 -1
150 5 133 22 -3 3 -35 5 -71 4 l-65 -2 0 38 c0 39 0 39 86 82 57 29 98 43 123
43 42 -1 116 -28 214 -79 37 -20 70 -33 74 -30 3 4 -6 12 -21 18 -17 8 -26 20
-26 35 0 27 -18 41 -26 20 -5 -12 -21 -7 -87 25 -112 54 -158 54 -264 -2z"/>
    </g>
</svg>
